# xmcd CD database file
#
# Track frame offsets:
#	150
#	15132
#	30015
#	45652
#	61520
#	78875
#	100215
#	116652
#	136905
#	154385
#	204130
#	230317
#	245775
#	259647
#	273567
#	290880
#
# Disc length: 4206 seconds
#
# Revision: 5
# Processed by: cddbd v1.5.1PL0 Copyright (c) Steve Scherf et al.
# Submitted via: CDex 1.51
#
DISCID=c9106c10
DTITLE=Nitty Gritty Dirt Band - Live Two Five
DYEAR=1991
DGENRE=Country
TTITLE0=High Horse
TTITLE1=I've Been Lookin'
TTITLE2=Make a Little Magic
TTITLE3=You Ain't Goin' Nowhere
TTITLE4=Long Hard Road (The Sharecroppers Dream)
TTITLE5=Stand a Little Rain
TTITLE6=Dance Little Jean
TTITLE7=Mr Bojangles
TTITLE8=Workin' Man (Nowhere to go)
TTITLE9=Ripplin' Waters
TTITLE10=El Harpo
TTITLE11=Fishin' in the Dark
TTITLE12=Baby's Got a Hold on Me
TTITLE13=Face on the Cutting Room Floor
TTITLE14=Partners, Brothers and Friends
TTITLE15=Cadillac Ranch
EXTD=YEAR: 1991
EXTT0=
EXTT1=
EXTT2=
EXTT3=
EXTT4=
EXTT5=
EXTT6=
EXTT7=
EXTT8=
EXTT9=
EXTT10=
EXTT11=
EXTT12=
EXTT13=
EXTT14=
EXTT15=
PLAYORDER=
